<mxfile>
    <diagram id="hSyd5bIeyMV5qwnmumWd" name="Page-1">
        <mxGraphModel dx="858" dy="617" grid="1" gridSize="10" guides="1" tooltips="1" connect="1" arrows="1" fold="1" page="1" pageScale="1" pageWidth="827" pageHeight="1169" math="0" shadow="0">
            <root>
                <mxCell id="0"/>
                <mxCell id="1" parent="0"/>
                <mxCell id="hyVbnHABrZ3aZhe9c6BI-21" value="question_table" style="shape=table;startSize=30;container=1;collapsible=1;childLayout=tableLayout;fixedRows=1;rowLines=0;fontStyle=1;align=center;resizeLast=1;" parent="1" vertex="1">
                    <mxGeometry x="100" y="80" width="180" height="210" as="geometry"/>
                </mxCell>
                <mxCell id="hyVbnHABrZ3aZhe9c6BI-22" value="" style="shape=partialRectangle;collapsible=0;dropTarget=0;pointerEvents=0;fillColor=none;top=0;left=0;bottom=1;right=0;points=[[0,0.5],[1,0.5]];portConstraint=eastwest;" parent="hyVbnHABrZ3aZhe9c6BI-21" vertex="1">
                    <mxGeometry y="30" width="180" height="30" as="geometry"/>
                </mxCell>
                <mxCell id="hyVbnHABrZ3aZhe9c6BI-23" value="PK" style="shape=partialRectangle;connectable=0;fillColor=none;top=0;left=0;bottom=0;right=0;fontStyle=1;overflow=hidden;" parent="hyVbnHABrZ3aZhe9c6BI-22" vertex="1">
                    <mxGeometry width="30" height="30" as="geometry"/>
                </mxCell>
                <mxCell id="hyVbnHABrZ3aZhe9c6BI-24" value="question_id" style="shape=partialRectangle;connectable=0;fillColor=none;top=0;left=0;bottom=0;right=0;align=left;spacingLeft=6;fontStyle=5;overflow=hidden;" parent="hyVbnHABrZ3aZhe9c6BI-22" vertex="1">
                    <mxGeometry x="30" width="150" height="30" as="geometry"/>
                </mxCell>
                <mxCell id="hyVbnHABrZ3aZhe9c6BI-25" value="" style="shape=partialRectangle;collapsible=0;dropTarget=0;pointerEvents=0;fillColor=none;top=0;left=0;bottom=0;right=0;points=[[0,0.5],[1,0.5]];portConstraint=eastwest;" parent="hyVbnHABrZ3aZhe9c6BI-21" vertex="1">
                    <mxGeometry y="60" width="180" height="30" as="geometry"/>
                </mxCell>
                <mxCell id="hyVbnHABrZ3aZhe9c6BI-26" value="" style="shape=partialRectangle;connectable=0;fillColor=none;top=0;left=0;bottom=0;right=0;editable=1;overflow=hidden;" parent="hyVbnHABrZ3aZhe9c6BI-25" vertex="1">
                    <mxGeometry width="30" height="30" as="geometry"/>
                </mxCell>
                <mxCell id="hyVbnHABrZ3aZhe9c6BI-27" value="question" style="shape=partialRectangle;connectable=0;fillColor=none;top=0;left=0;bottom=0;right=0;align=left;spacingLeft=6;overflow=hidden;" parent="hyVbnHABrZ3aZhe9c6BI-25" vertex="1">
                    <mxGeometry x="30" width="150" height="30" as="geometry"/>
                </mxCell>
                <mxCell id="hyVbnHABrZ3aZhe9c6BI-28" value="" style="shape=partialRectangle;collapsible=0;dropTarget=0;pointerEvents=0;fillColor=none;top=0;left=0;bottom=0;right=0;points=[[0,0.5],[1,0.5]];portConstraint=eastwest;" parent="hyVbnHABrZ3aZhe9c6BI-21" vertex="1">
                    <mxGeometry y="90" width="180" height="90" as="geometry"/>
                </mxCell>
                <mxCell id="hyVbnHABrZ3aZhe9c6BI-29" value="" style="shape=partialRectangle;connectable=0;fillColor=none;top=0;left=0;bottom=0;right=0;editable=1;overflow=hidden;" parent="hyVbnHABrZ3aZhe9c6BI-28" vertex="1">
                    <mxGeometry width="30" height="90" as="geometry"/>
                </mxCell>
                <mxCell id="hyVbnHABrZ3aZhe9c6BI-30" value="" style="shape=partialRectangle;connectable=0;fillColor=none;top=0;left=0;bottom=0;right=0;align=left;spacingLeft=6;overflow=hidden;" parent="hyVbnHABrZ3aZhe9c6BI-28" vertex="1">
                    <mxGeometry x="30" width="150" height="90" as="geometry"/>
                </mxCell>
                <mxCell id="hyVbnHABrZ3aZhe9c6BI-31" value="" style="shape=partialRectangle;collapsible=0;dropTarget=0;pointerEvents=0;fillColor=none;top=0;left=0;bottom=0;right=0;points=[[0,0.5],[1,0.5]];portConstraint=eastwest;" parent="hyVbnHABrZ3aZhe9c6BI-21" vertex="1">
                    <mxGeometry y="180" width="180" height="30" as="geometry"/>
                </mxCell>
                <mxCell id="hyVbnHABrZ3aZhe9c6BI-32" value="" style="shape=partialRectangle;connectable=0;fillColor=none;top=0;left=0;bottom=0;right=0;editable=1;overflow=hidden;" parent="hyVbnHABrZ3aZhe9c6BI-31" vertex="1">
                    <mxGeometry width="30" height="30" as="geometry"/>
                </mxCell>
                <mxCell id="hyVbnHABrZ3aZhe9c6BI-33" value="Created_date" style="shape=partialRectangle;connectable=0;fillColor=none;top=0;left=0;bottom=0;right=0;align=left;spacingLeft=6;overflow=hidden;" parent="hyVbnHABrZ3aZhe9c6BI-31" vertex="1">
                    <mxGeometry x="30" width="150" height="30" as="geometry"/>
                </mxCell>
                <mxCell id="hyVbnHABrZ3aZhe9c6BI-34" value="count_log" style="shape=table;startSize=30;container=1;collapsible=1;childLayout=tableLayout;fixedRows=1;rowLines=0;fontStyle=1;align=center;resizeLast=1;" parent="1" vertex="1">
                    <mxGeometry x="324" y="80" width="180" height="240" as="geometry"/>
                </mxCell>
                <mxCell id="hyVbnHABrZ3aZhe9c6BI-35" value="" style="shape=partialRectangle;collapsible=0;dropTarget=0;pointerEvents=0;fillColor=none;top=0;left=0;bottom=1;right=0;points=[[0,0.5],[1,0.5]];portConstraint=eastwest;" parent="hyVbnHABrZ3aZhe9c6BI-34" vertex="1">
                    <mxGeometry y="30" width="180" height="30" as="geometry"/>
                </mxCell>
                <mxCell id="hyVbnHABrZ3aZhe9c6BI-36" value="PK" style="shape=partialRectangle;connectable=0;fillColor=none;top=0;left=0;bottom=0;right=0;fontStyle=1;overflow=hidden;" parent="hyVbnHABrZ3aZhe9c6BI-35" vertex="1">
                    <mxGeometry width="30" height="30" as="geometry"/>
                </mxCell>
                <mxCell id="hyVbnHABrZ3aZhe9c6BI-37" value="id" style="shape=partialRectangle;connectable=0;fillColor=none;top=0;left=0;bottom=0;right=0;align=left;spacingLeft=6;fontStyle=5;overflow=hidden;" parent="hyVbnHABrZ3aZhe9c6BI-35" vertex="1">
                    <mxGeometry x="30" width="150" height="30" as="geometry"/>
                </mxCell>
                <mxCell id="hyVbnHABrZ3aZhe9c6BI-38" value="" style="shape=partialRectangle;collapsible=0;dropTarget=0;pointerEvents=0;fillColor=none;top=0;left=0;bottom=0;right=0;points=[[0,0.5],[1,0.5]];portConstraint=eastwest;" parent="hyVbnHABrZ3aZhe9c6BI-34" vertex="1">
                    <mxGeometry y="60" width="180" height="30" as="geometry"/>
                </mxCell>
                <mxCell id="hyVbnHABrZ3aZhe9c6BI-39" value="" style="shape=partialRectangle;connectable=0;fillColor=none;top=0;left=0;bottom=0;right=0;editable=1;overflow=hidden;" parent="hyVbnHABrZ3aZhe9c6BI-38" vertex="1">
                    <mxGeometry width="30" height="30" as="geometry"/>
                </mxCell>
                <mxCell id="hyVbnHABrZ3aZhe9c6BI-40" value="questions_id" style="shape=partialRectangle;connectable=0;fillColor=none;top=0;left=0;bottom=0;right=0;align=left;spacingLeft=6;overflow=hidden;" parent="hyVbnHABrZ3aZhe9c6BI-38" vertex="1">
                    <mxGeometry x="30" width="150" height="30" as="geometry"/>
                </mxCell>
                <mxCell id="hyVbnHABrZ3aZhe9c6BI-41" value="" style="shape=partialRectangle;collapsible=0;dropTarget=0;pointerEvents=0;fillColor=none;top=0;left=0;bottom=0;right=0;points=[[0,0.5],[1,0.5]];portConstraint=eastwest;" parent="hyVbnHABrZ3aZhe9c6BI-34" vertex="1">
                    <mxGeometry y="90" width="180" height="30" as="geometry"/>
                </mxCell>
                <mxCell id="hyVbnHABrZ3aZhe9c6BI-42" value="" style="shape=partialRectangle;connectable=0;fillColor=none;top=0;left=0;bottom=0;right=0;editable=1;overflow=hidden;" parent="hyVbnHABrZ3aZhe9c6BI-41" vertex="1">
                    <mxGeometry width="30" height="30" as="geometry"/>
                </mxCell>
                <mxCell id="hyVbnHABrZ3aZhe9c6BI-43" value="yep_count" style="shape=partialRectangle;connectable=0;fillColor=none;top=0;left=0;bottom=0;right=0;align=left;spacingLeft=6;overflow=hidden;" parent="hyVbnHABrZ3aZhe9c6BI-41" vertex="1">
                    <mxGeometry x="30" width="150" height="30" as="geometry"/>
                </mxCell>
                <mxCell id="hyVbnHABrZ3aZhe9c6BI-44" value="" style="shape=partialRectangle;collapsible=0;dropTarget=0;pointerEvents=0;fillColor=none;top=0;left=0;bottom=0;right=0;points=[[0,0.5],[1,0.5]];portConstraint=eastwest;" parent="hyVbnHABrZ3aZhe9c6BI-34" vertex="1">
                    <mxGeometry y="120" width="180" height="30" as="geometry"/>
                </mxCell>
                <mxCell id="hyVbnHABrZ3aZhe9c6BI-45" value="" style="shape=partialRectangle;connectable=0;fillColor=none;top=0;left=0;bottom=0;right=0;editable=1;overflow=hidden;" parent="hyVbnHABrZ3aZhe9c6BI-44" vertex="1">
                    <mxGeometry width="30" height="30" as="geometry"/>
                </mxCell>
                <mxCell id="hyVbnHABrZ3aZhe9c6BI-46" value="nope_count" style="shape=partialRectangle;connectable=0;fillColor=none;top=0;left=0;bottom=0;right=0;align=left;spacingLeft=6;overflow=hidden;" parent="hyVbnHABrZ3aZhe9c6BI-44" vertex="1">
                    <mxGeometry x="30" width="150" height="30" as="geometry"/>
                </mxCell>
                <mxCell id="hyVbnHABrZ3aZhe9c6BI-47" value="status_count" style="shape=table;startSize=30;container=1;collapsible=1;childLayout=tableLayout;fixedRows=1;rowLines=0;fontStyle=1;align=center;resizeLast=1;" parent="1" vertex="1">
                    <mxGeometry x="800" y="90" width="180" height="150" as="geometry"/>
                </mxCell>
                <mxCell id="hyVbnHABrZ3aZhe9c6BI-48" value="" style="shape=partialRectangle;collapsible=0;dropTarget=0;pointerEvents=0;fillColor=none;top=0;left=0;bottom=1;right=0;points=[[0,0.5],[1,0.5]];portConstraint=eastwest;" parent="hyVbnHABrZ3aZhe9c6BI-47" vertex="1">
                    <mxGeometry y="30" width="180" height="30" as="geometry"/>
                </mxCell>
                <mxCell id="hyVbnHABrZ3aZhe9c6BI-49" value="PK" style="shape=partialRectangle;connectable=0;fillColor=none;top=0;left=0;bottom=0;right=0;fontStyle=1;overflow=hidden;" parent="hyVbnHABrZ3aZhe9c6BI-48" vertex="1">
                    <mxGeometry width="30" height="30" as="geometry"/>
                </mxCell>
                <mxCell id="hyVbnHABrZ3aZhe9c6BI-50" value="id" style="shape=partialRectangle;connectable=0;fillColor=none;top=0;left=0;bottom=0;right=0;align=left;spacingLeft=6;fontStyle=5;overflow=hidden;" parent="hyVbnHABrZ3aZhe9c6BI-48" vertex="1">
                    <mxGeometry x="30" width="150" height="30" as="geometry"/>
                </mxCell>
                <mxCell id="hyVbnHABrZ3aZhe9c6BI-51" value="" style="shape=partialRectangle;collapsible=0;dropTarget=0;pointerEvents=0;fillColor=none;top=0;left=0;bottom=0;right=0;points=[[0,0.5],[1,0.5]];portConstraint=eastwest;" parent="hyVbnHABrZ3aZhe9c6BI-47" vertex="1">
                    <mxGeometry y="60" width="180" height="30" as="geometry"/>
                </mxCell>
                <mxCell id="hyVbnHABrZ3aZhe9c6BI-52" value="" style="shape=partialRectangle;connectable=0;fillColor=none;top=0;left=0;bottom=0;right=0;editable=1;overflow=hidden;" parent="hyVbnHABrZ3aZhe9c6BI-51" vertex="1">
                    <mxGeometry width="30" height="30" as="geometry"/>
                </mxCell>
                <mxCell id="hyVbnHABrZ3aZhe9c6BI-53" value="status" style="shape=partialRectangle;connectable=0;fillColor=none;top=0;left=0;bottom=0;right=0;align=left;spacingLeft=6;overflow=hidden;" parent="hyVbnHABrZ3aZhe9c6BI-51" vertex="1">
                    <mxGeometry x="30" width="150" height="30" as="geometry"/>
                </mxCell>
                <mxCell id="hyVbnHABrZ3aZhe9c6BI-54" value="" style="shape=partialRectangle;collapsible=0;dropTarget=0;pointerEvents=0;fillColor=none;top=0;left=0;bottom=0;right=0;points=[[0,0.5],[1,0.5]];portConstraint=eastwest;" parent="hyVbnHABrZ3aZhe9c6BI-47" vertex="1">
                    <mxGeometry y="90" width="180" height="30" as="geometry"/>
                </mxCell>
                <mxCell id="hyVbnHABrZ3aZhe9c6BI-55" value="" style="shape=partialRectangle;connectable=0;fillColor=none;top=0;left=0;bottom=0;right=0;editable=1;overflow=hidden;" parent="hyVbnHABrZ3aZhe9c6BI-54" vertex="1">
                    <mxGeometry width="30" height="30" as="geometry"/>
                </mxCell>
                <mxCell id="hyVbnHABrZ3aZhe9c6BI-56" value="question_id" style="shape=partialRectangle;connectable=0;fillColor=none;top=0;left=0;bottom=0;right=0;align=left;spacingLeft=6;overflow=hidden;" parent="hyVbnHABrZ3aZhe9c6BI-54" vertex="1">
                    <mxGeometry x="30" width="150" height="30" as="geometry"/>
                </mxCell>
                <mxCell id="hyVbnHABrZ3aZhe9c6BI-57" value="" style="shape=partialRectangle;collapsible=0;dropTarget=0;pointerEvents=0;fillColor=none;top=0;left=0;bottom=0;right=0;points=[[0,0.5],[1,0.5]];portConstraint=eastwest;" parent="hyVbnHABrZ3aZhe9c6BI-47" vertex="1">
                    <mxGeometry y="120" width="180" height="30" as="geometry"/>
                </mxCell>
                <mxCell id="hyVbnHABrZ3aZhe9c6BI-58" value="" style="shape=partialRectangle;connectable=0;fillColor=none;top=0;left=0;bottom=0;right=0;editable=1;overflow=hidden;" parent="hyVbnHABrZ3aZhe9c6BI-57" vertex="1">
                    <mxGeometry width="30" height="30" as="geometry"/>
                </mxCell>
                <mxCell id="hyVbnHABrZ3aZhe9c6BI-59" value="Created_at" style="shape=partialRectangle;connectable=0;fillColor=none;top=0;left=0;bottom=0;right=0;align=left;spacingLeft=6;overflow=hidden;" parent="hyVbnHABrZ3aZhe9c6BI-57" vertex="1">
                    <mxGeometry x="30" width="150" height="30" as="geometry"/>
                </mxCell>
                <mxCell id="hyVbnHABrZ3aZhe9c6BI-60" value="super_count" style="shape=partialRectangle;connectable=0;fillColor=none;top=0;left=0;bottom=0;right=0;align=left;spacingLeft=6;overflow=hidden;" parent="1" vertex="1">
                    <mxGeometry x="354" y="230" width="150" height="30" as="geometry"/>
                </mxCell>
                <mxCell id="hyVbnHABrZ3aZhe9c6BI-61" value="Update_date" style="shape=partialRectangle;connectable=0;fillColor=none;top=0;left=0;bottom=0;right=0;align=left;spacingLeft=6;overflow=hidden;" parent="1" vertex="1">
                    <mxGeometry x="354" y="260" width="150" height="30" as="geometry"/>
                </mxCell>
                <mxCell id="hyVbnHABrZ3aZhe9c6BI-63" value="Created_date" style="shape=partialRectangle;connectable=0;fillColor=none;top=0;left=0;bottom=0;right=0;align=left;spacingLeft=6;overflow=hidden;" parent="1" vertex="1">
                    <mxGeometry x="354" y="290" width="150" height="30" as="geometry"/>
                </mxCell>
                <mxCell id="hyVbnHABrZ3aZhe9c6BI-64" value="・1週間ごとに集計クエリが&lt;br&gt;発生。カウントした結果が&lt;br&gt;count_logに入る。&lt;br&gt;&lt;br&gt;・新しく作ったカラムに&lt;br&gt;yep_countなどは前の&lt;br&gt;yep_countなどの数に加算される。&lt;br&gt;&lt;br&gt;・集計クエリ完了後&lt;br&gt;status_countは削除される。" style="whiteSpace=wrap;html=1;fontStyle=1;startSize=30;align=left;" parent="1" vertex="1">
                    <mxGeometry x="560" y="120" width="180" height="180" as="geometry"/>
                </mxCell>
                <mxCell id="hyVbnHABrZ3aZhe9c6BI-66" value="yep_count" style="shape=partialRectangle;connectable=0;fillColor=none;top=0;left=0;bottom=0;right=0;align=left;spacingLeft=6;overflow=hidden;" parent="1" vertex="1">
                    <mxGeometry x="130" y="170" width="150" height="30" as="geometry"/>
                </mxCell>
                <mxCell id="hyVbnHABrZ3aZhe9c6BI-67" value="nope_count" style="shape=partialRectangle;connectable=0;fillColor=none;top=0;left=0;bottom=0;right=0;align=left;spacingLeft=6;overflow=hidden;" parent="1" vertex="1">
                    <mxGeometry x="130" y="200" width="150" height="30" as="geometry"/>
                </mxCell>
                <mxCell id="hyVbnHABrZ3aZhe9c6BI-68" value="super_count" style="shape=partialRectangle;connectable=0;fillColor=none;top=0;left=0;bottom=0;right=0;align=left;spacingLeft=6;overflow=hidden;" parent="1" vertex="1">
                    <mxGeometry x="130" y="230" width="150" height="30" as="geometry"/>
                </mxCell>
                <mxCell id="hyVbnHABrZ3aZhe9c6BI-69" value="" style="endArrow=classic;html=1;exitX=0;exitY=0.5;exitDx=0;exitDy=0;entryX=1.019;entryY=0.076;entryDx=0;entryDy=0;entryPerimeter=0;" parent="1" source="hyVbnHABrZ3aZhe9c6BI-64" target="hyVbnHABrZ3aZhe9c6BI-34" edge="1">
                    <mxGeometry width="50" height="50" relative="1" as="geometry">
                        <mxPoint x="520" y="300" as="sourcePoint"/>
                        <mxPoint x="570" y="250" as="targetPoint"/>
                        <Array as="points">
                            <mxPoint x="530" y="130"/>
                        </Array>
                    </mxGeometry>
                </mxCell>
                <mxCell id="hyVbnHABrZ3aZhe9c6BI-70" value="" style="edgeStyle=orthogonalEdgeStyle;rounded=0;orthogonalLoop=1;jettySize=auto;html=1;exitX=-0.019;exitY=0.833;exitDx=0;exitDy=0;exitPerimeter=0;" parent="1" source="hyVbnHABrZ3aZhe9c6BI-51" target="hyVbnHABrZ3aZhe9c6BI-64" edge="1">
                    <mxGeometry relative="1" as="geometry"/>
                </mxCell>
                <mxCell id="hyVbnHABrZ3aZhe9c6BI-76" value="" style="edgeStyle=entityRelationEdgeStyle;fontSize=12;html=1;endArrow=ERone;endFill=1;exitX=1;exitY=0.5;exitDx=0;exitDy=0;entryX=0;entryY=0.5;entryDx=0;entryDy=0;" parent="1" source="hyVbnHABrZ3aZhe9c6BI-22" target="hyVbnHABrZ3aZhe9c6BI-38" edge="1">
                    <mxGeometry width="100" height="100" relative="1" as="geometry">
                        <mxPoint x="490" y="320" as="sourcePoint"/>
                        <mxPoint x="590" y="220" as="targetPoint"/>
                    </mxGeometry>
                </mxCell>
                <mxCell id="hyVbnHABrZ3aZhe9c6BI-77" value="" style="edgeStyle=orthogonalEdgeStyle;rounded=0;orthogonalLoop=1;jettySize=auto;html=1;entryX=1;entryY=0.5;entryDx=0;entryDy=0;" parent="1" target="hyVbnHABrZ3aZhe9c6BI-51" edge="1">
                    <mxGeometry relative="1" as="geometry">
                        <mxPoint x="1060" y="165" as="sourcePoint"/>
                        <mxPoint x="750" y="184.99" as="targetPoint"/>
                    </mxGeometry>
                </mxCell>
                <mxCell id="hyVbnHABrZ3aZhe9c6BI-78" value="質問に対して&lt;br&gt;「はい」「いいえ&lt;br&gt;「とてもはい」とユーザーが&lt;br&gt;回答する。" style="whiteSpace=wrap;html=1;fontStyle=1;startSize=30;" parent="1" vertex="1">
                    <mxGeometry x="1061" y="110" width="180" height="110" as="geometry"/>
                </mxCell>
                <mxCell id="2" value="後々&lt;br&gt;・エンジニアあるある以外の&lt;span style=&quot;font-weight: 700&quot;&gt;question_tableのテーブルを作る&lt;br&gt;&lt;/span&gt;" style="rounded=0;whiteSpace=wrap;html=1;" vertex="1" parent="1">
                    <mxGeometry x="100" y="360" width="190" height="250" as="geometry"/>
                </mxCell>
            </root>
        </mxGraphModel>
    </diagram>
</mxfile>